<?xml version="1.0" encoding="utf-8"?>

<svg xmlns="http://www.w3.org/2000/svg" viewBox="0 0 150.4 164" id="Layer_1" xml:space="preserve" style="background:black;">
	<style type="text/css">
	.st0{fill-rule:evenodd;clip-rule:evenodd;fill:#47C1CC;}
</style>
<path class="st0" d="M29,47.9c-2.1,1.4-3.7,2.7-5.2,4.3c-2,2-2.4,3.1-3.1,5.7c-0.6,2.7-1.8,5.4-3.4,7.8c-1.2,1.7-2.6,2.5-4,3.4
	c-1.2,0.7-2.7,1.2-4,1.6c-1.3,0.5-2,1.3-2.7,2.3c-3,4.6,2.3,6.5,1.7,7.2c-0.9,1.1-2.7,1.8-4,2.3c-0.8,0.3-1.3,0.5-1.8,1.5
	C1.5,85.4,2,86.5,2.3,89c-1.4,1-2.8,2.3-2.1,4.2c0.3,0.7,0.6,1.2,1.4,1.8c0.6,0.5,1,1,1,2.1c0,0.7-0.1,1.2-0.4,2.1
	c-0.1,0.5-0.3,1-0.5,1.5c-0.7,1.5-1,2.8-0.9,3.9l0,0.1c-0.1,2.6,1.4,3.6,3.4,4.4l0,0c3.2,1.7,7.8,2.2,10.8,2.6l0,0
	c1.6,0.2,3.3,0.5,5.1,1c1.7,0.5,3,1.3,4.2,2.3c3.1,2.5,2.7,5.7,3.7,9.5l0,0c0.9,6.3,3.1,12.2,4.5,18.2c2.3,9.8-1.6,12.9-6.7,21.2
	h64.7c-2.7-6.6-7.4-10-11.1-15c-3.4-4.5-3.1-6.2-2-10.3c0.1-0.4,1.1-3.2,1.9-5.3l0.2,0.4l0.6,0.4l1.2-0.2l0.4-0.8l0.6-0.2l0.5-0.8
	l1.2-0.5l0.8,0l1.4,0.5l0.6,0.2l0.3,1.1c0,0,0,0.4,0.1,0.6c0.1,0.1,0.9,0.1,0.9,0.1l0.7,0.4l0.3,0.7l1,0.1l0.4-0.7l0.4-0.5l0.7,0
	l0.6,0.4l0.7-0.3l0.6-0.7l0.9-0.9l0.8-0.4l1.3-0.8l1.2-0.4l0.8-0.1l0.8,0.4l0.7,0.6l0.5,0.4l0.6-0.2l0.9-0.4l0.6,0.5l1.1-0.2
	l0.2-0.5l0.8-0.5l1.5-0.1l1.2-0.2l0.8-1.2l1.2-0.2l0.9-0.7l0.6-0.9l0.7,0.1l0.6,0.5l0.6-0.4l-0.1-1.6l0.6-0.2l0.6,1.1l0.5,0.4l1,0.1
	l1-0.4l-0.1-1.2l1.1-0.1l1.3,0.3l0.7-0.6l0.8-0.8l0.6-1.3l0.3-1.5l1-0.4l1.2-0.4l0.1-1l1-0.1l1.2-0.7l1.1-0.9l0.9-0.2l0.8-1.1
	l-0.9-0.3l-0.9-1l-0.1-0.9l1.3,0.2l2.8-0.5l1.6-0.5l1.1-1.2l0.2-1.2l-0.9,0l0-0.7l0.7-1l1.3-0.1l0.6-0.1l0.6-0.9l-0.2-1.2l0.6-1.2
	l0.7-0.7l1.2-0.3l0.8-0.1l0.7-0.6l-0.1-0.9l0.7-1.3l1.2-0.9l-0.2-1.2l-0.1-0.7l0.6-0.4l0.1-0.8l-0.4-0.6l0.6-0.4l0.3,0.1l0.7,0.4
	l0.7,0l0.2-0.9l-0.9-0.7l0.1-0.5l0.6-0.2l0.2-0.9l0.3-0.6l0.8-0.3l1.3-0.5l0.5-0.7l0.1-0.5l-0.8-0.2l-0.2-0.8l0.6-0.5l0.4-1
	l-0.5-0.9l-0.7,0l-0.4-0.9l0.3-1.2l-0.1-0.6l0.7-0.1l0.3-0.4l0.1-0.4l-0.5-0.7l0.4-0.7l0.5-0.1l0.4-0.4l0.5-0.1l0.4-1.1l0.3-0.4
	l0.6,0l0.5-0.3l0.3-0.2l-0.2-1l-0.5-0.3l0.2-0.5l0.1-0.3l-0.2-0.2l-0.1-0.5l0.2-0.1l-0.2-0.6l-0.7,0l-0.3-0.5l0.3-0.5l-0.2-0.5
	l-1.2-0.5l-0.7-0.7l0.3-0.4l0.5,0.2l0.6,0l0.2-0.3l0-0.7l-0.4-0.3l-0.8-0.5l-0.2-0.6l0.4-0.2l0.4-0.6l0.2-0.8l0.5,0.3l0.2-0.5
	l-0.5-0.1l0.2-0.7l0.1-0.6l-0.5-0.5l-0.6-0.3l-0.6-0.4l-0.2-0.5l0.1-0.6l0.3-0.2l0.3-0.2l0.4,0.2l0.3-0.3l-0.2-0.9l0.4-0.4l0.3-0.6
	l-0.2-0.4l0.3-0.3l0.6-0.1l0.2-0.8c0,0,0.1-0.3,0.1-0.5c0-0.1-0.3-0.2-0.3-0.2l-0.4-0.3l0.2-0.5l0.1-0.6l-0.6-0.6l-0.7,0.2l-0.6-0.5
	l0.4-0.2l-0.2-0.9l-0.5-0.3l0.2-0.5l0.9,0l0.2-0.8l-0.5-0.8l-0.7-0.3l-0.6-0.4l0.3-0.4l0.4-0.4l0.2-0.5l-0.3-0.6l-0.1-0.6l0.3-0.4
	l-0.1-0.7l0.4-0.4l0.1,0l-0.1-0.3l-0.1-0.3l-0.1,0l-0.5-0.1l-0.3-0.7l-0.5-0.2l-0.2-0.5l-0.1-0.7l-0.4-0.3l-0.5-0.2l-0.4-0.2
	l0.4-0.6l0.5-0.6l0.1-0.9l-0.6-0.5l-0.8,0.4l-0.4-0.4l0.3-0.6l-0.3-0.8l-0.5,0l0.3-0.7l0.7-0.2l0.2-0.8l-0.4-0.5l-0.5-0.3l0.2-0.4
	c0,0,0.2-0.3,0.1-0.4c-0.1-0.1-0.3-0.3-0.3-0.3l-0.6-0.6l-0.6,0.2l-0.4-0.1l0-0.5l-0.6-0.4l-0.6-0.2l-0.3-0.8l-0.4-0.1l-0.3,0.3
	l-0.4,0l-0.4,0L139,37l-0.1-0.6l0.3-0.7l0.3-0.6l0.2-0.7l-0.3-0.5l-0.5-0.5l0.4-0.3l-0.4-0.3l-0.3,0.5l-0.6-0.5l-0.7-0.3l-0.5,0
	l-0.1-0.6l0.4-0.8l0.2-0.4l-0.4-0.7l-0.4-0.2l-0.5,0.3l-0.3,0.4l-0.5-0.1l0.2-1l0.8-1l0-0.5l-0.5-0.3l0-0.6l0.6-0.4l-0.2-0.7l-0.3,0
	l-0.2-0.5l0.1-0.3l-0.3-0.2l-0.4-0.3l0.2-0.5l-0.3-1l-0.4,0l-0.6,0l-0.5,0.3l-0.5-0.2l-0.9-0.8l-0.5,0.1l-0.5-0.1l-0.5,0.1l-0.7-0.4
	l0.1-0.9l-0.3-0.3l-0.5-0.2l-0.7,0.3l-0.2-0.6l-0.9-0.9l-0.1-1l0.6-0.4l0-1l-0.8-0.6l-0.8-0.1l-0.2-0.8l0.6-0.6l-0.4-0.4l-0.8-0.4
	l-1.3,0.2l-0.8,0.1l-0.5-0.4l-0.6-0.7l-0.6,0.2l-0.3-0.4l0.4-1.1l-0.7-0.7l-0.7,0.3l-0.4,0.7l-0.2,0.2l-0.7,0l0-0.8l-0.5-0.7
	l-0.8-0.1l-0.3-0.6l-0.5-1.1l-1.5-0.2l-1.3-0.8L113.9,8L113,7.8l-0.7,0.3l-1.2,0.4l-1-0.3L109,7.5l-0.5-1.1l-1-0.5l-0.6,0.3
	l-1.2,0.6l-1.1-0.6l-0.3-0.6l0.8-0.5l-0.8-0.9l-1.5-0.5l-1.6,0.4l-2.7,1l-1,0.9l-0.3-0.8l0.3-1.4L98,3l-1.2-0.6L96,2.7l-1.4-0.2
	l-1.4,0l-0.9,0.4l-0.6-0.8l-1.3,0.2l-1,0.2l-1-1.2l-1.2-0.9l-1.1-0.3L85.2,0l-1,0.9l-1,0.4l-0.5-1.1l-1.1,0.1l-0.8,0.6l-0.2,0.6
	l0.1,1.2l-0.7,0.1l-0.7-1.4l-0.8-0.1l-0.2,0.7l-0.6,0.4l-1-0.5l-1.2-0.1l-1.2,0.4L73,1.6L71.9,2l-1.3,0.7l-0.9,0l-0.4-0.3l-1.1,0.4
	l-0.3,0.7l-1,0.1l-0.7,0.1L66,4.3l-0.3,0.9l-0.5,0.7l-0.7,0.3l-1.3,0.2l-1.5,0l-0.9,0.1l-1.2-0.4l-0.8-0.3L58,5.9l-0.3,0.6L57,6.8
	l-0.6-0.2l-0.7-0.4l-0.8,0.5L55,7.6l-0.5,0.7c0,0-0.7,0.4-0.8,0.6c0,0.2,0.2,0.5,0.2,0.5l0.2,1.1L53.7,11l-1,1.1l-0.7,0.4l-1.3,0.2
	L50,12.2l-0.6,0.1l-0.8-0.5l-1.1,0.4L47.1,13l0.1,0.8L46.3,14l-1-0.1l-0.4,0.7l-0.1,0.9l-0.9,0.4l-0.1,0.5l0.2,0.9l-0.5,0.3
	l-0.2,0.6l0.5,0.8l0.1,0.4l-0.5-0.1l-0.8,0l-0.3,0.3l-0.6,0.3l-0.7-0.3l-0.5,0.3l-0.1,0.8l-0.3,0.9l-1.3,0.3l-0.4,0.5l0.2,1l0.6,0.8
	l0.3,0.4l-2.1,0.3l-0.7,0.5l-0.1,0.9l0.3,0.8l-0.2,0.6L36,28.3l-1,0.2l-0.6,0.3l-0.1,0.6l0.2,0.3L33.7,30l-0.5,0.2l0,0.7L33,31.5
	l-0.3,0.3l-1,0.4l-0.6,0.4L31.1,33l0,0.5l-0.5,0.2l0,0.9l0.2,0.7l-0.7,0.3l-0.7,0.8L29,37.2l0,0.9l0.3,0.6l0,0.7l-0.4,0.8l0.4,0.5
	l0.6,0.2l-0.2,0.6L29,41.9l0,0.6l0.4,0.7l0.4,0.1l0,0.6l-0.5,0.4L29.2,45l0.3,0.8l-0.7,0.5l-0.1,0.6l0.4,0.7L29,47.9z"/>
</svg>